<svg id="uuid-2ce483be-4de2-4b81-ad59-59420688ea4f" xmlns="http://www.w3.org/2000/svg" viewBox="0 0 324.02 49.46"><g id="uuid-7fb65fdd-9253-4d2c-9223-502143f4a007"><rect x="27.78" y="0" width="7.09" height="49.46" fill="#2c2c2c"/><path d="M61.44,14.37v-5.79C61.44,2.89,58.71,0,53.33,0h-4.22C43.74,0,41.01,2.89,41.01,8.58V40.82c0,5.69,2.73,8.58,8.1,8.58h4.22c5.38,0,8.1-2.89,8.1-8.58v-5.76h-7.09v5.28c0,1.75-.73,2.57-2.3,2.57h-1.63c-1.57,0-2.3-.82-2.3-2.57V9.06c0-1.75,.73-2.57,2.3-2.57h1.29c1.8,0,2.64,.82,2.64,2.57v5.31h7.09Z" fill="#2c2c2c"/><path d="M81.93,0h-6.26C70.3,0,67.57,2.91,67.57,8.65V40.82c0,5.69,2.75,8.58,8.17,8.58h6.12c5.42,0,8.17-2.89,8.17-8.58V8.65C90.04,2.91,87.31,0,81.93,0Zm1.01,9.06v31.29c0,1.75-.73,2.57-2.3,2.57h-3.33c-1.8,0-2.64-.82-2.64-2.57V9.06c0-1.75,.82-2.57,2.58-2.57h3.06c1.8,0,2.64,.82,2.64,2.57Z" fill="#2c2c2c"/><path d="M143.23,14.33v-5.69C143.23,2.91,140.5,0,135.12,0h-4.08C125.66,0,122.94,2.91,122.94,8.65v10c0,1.3,.14,2.37,.42,3.19,.29,.84,.76,1.53,1.41,2.07,.63,.51,1.64,1.14,3,1.86l6.18,3.47c.8,.49,1.38,.89,1.73,1.2,.3,.26,.45,.82,.45,1.62v8.3c0,1.75-.73,2.57-2.3,2.57h-1.16c-1.8,0-2.64-.82-2.64-2.57v-5.28h-7.09v5.08c0,6.15,2.73,9.26,8.1,9.26h4.01c5.42,0,8.17-2.86,8.17-8.51v-10.41c0-1.79-.17-2.98-.51-3.63-.33-.65-.81-1.21-1.41-1.66-.58-.43-1.56-1.05-2.93-1.82l-6.18-3.32c-.79-.49-1.38-.89-1.73-1.2-.29-.25-.45-.82-.45-1.62V9.12c0-1.8,.8-2.64,2.51-2.64h1.02c1.75,0,2.57,.84,2.57,2.64v5.21h7.09Z" fill="#2c2c2c"/><path d="M164.05,0V40.01c0,1.99-.75,2.91-2.37,2.91h-2.65c-1.75,0-2.57-.93-2.57-2.91V0h-7.09V39.8c0,6.37,2.73,9.6,8.1,9.6h5.51c5.42,0,8.17-3.2,8.17-9.53V0h-7.1Z" fill="#2c2c2c"/><polygon points="196.65 0 190.83 29.98 185 0 177.28 0 177.28 49.4 184.38 49.4 183.76 20.16 188.03 42.7 188.08 42.92 193.57 42.92 197.89 20.16 197.28 49.11 197.27 49.4 204.37 49.4 204.37 0 196.65 0" fill="#2c2c2c"/><path d="M222.69,0h-12.19V49.4h7.09v-6.48h5.16c5.38,0,8.11-2.89,8.11-8.58V8.65C230.87,2.91,228.12,0,222.69,0Zm-5.09,6.48h3.53c1.8,0,2.64,.82,2.64,2.57v24.81c0,1.75-.73,2.57-2.3,2.57h-3.87V6.48Z" fill="#2c2c2c"/><polygon points="235.82 0 235.82 6.48 242.08 6.48 242.08 49.4 249.17 49.4 249.17 6.48 255.43 6.48 255.43 0 235.82 0" fill="#2c2c2c"/><rect x="261.56" y="0" width="7.09" height="49.4" fill="#2c2c2c"/><path d="M289.15,0h-6.26c-5.38,0-8.1,2.91-8.1,8.65V40.82c0,5.69,2.75,8.58,8.17,8.58h6.12c5.42,0,8.17-2.89,8.17-8.58V8.65C297.26,2.91,294.53,0,289.15,0Zm1.01,9.06v31.29c0,1.75-.73,2.57-2.3,2.57h-3.33c-1.8,0-2.64-.82-2.64-2.57V9.06c0-1.75,.82-2.57,2.58-2.57h3.06c1.8,0,2.64,.82,2.64,2.57Z" fill="#2c2c2c"/><polygon points="316.93 0 316.93 25.41 310.48 .2 310.42 0 303.39 0 303.39 49.4 310.49 49.4 310.49 18.99 316.93 42.92 316.93 49.4 324.02 49.4 324.02 0 316.93 0" fill="#2c2c2c"/><polygon points="109.71 0 109.71 25.41 103.25 .2 103.19 0 96.17 0 96.17 49.4 103.27 49.4 103.27 18.99 109.71 42.92 109.71 49.4 116.8 49.4 116.8 0 109.71 0" fill="#2c2c2c"/><polygon points="14.55 0 14.55 27.97 7.09 27.97 7.09 0 0 0 0 49.46 7.09 49.46 7.09 35.06 14.55 35.06 14.55 49.46 21.65 49.46 21.65 0 14.55 0" fill="#2c2c2c"/></g></svg>